<mxfile host="app.diagrams.net" modified="2021-04-22T12:31:19.203Z" agent="5.0 (Windows NT 10.0; Win64; x64) AppleWebKit/537.36 (KHTML, like Gecko) Chrome/90.0.4430.72 Safari/537.36" etag="KQUQr86sOPXf5ZuFwXjM" version="14.6.1" type="github">
  <diagram id="q6gtLLuuumNyU__RZeLn" name="Page-1">
    <mxGraphModel dx="2062" dy="1132" grid="0" gridSize="10" guides="1" tooltips="1" connect="1" arrows="1" fold="1" page="1" pageScale="1" pageWidth="827" pageHeight="1169" background="none" math="0" shadow="1">
      <root>
        <mxCell id="0" />
        <mxCell id="1" parent="0" />
        <mxCell id="4e6u0JH_3afCgV2eePuw-4" value="" style="edgeStyle=orthogonalEdgeStyle;rounded=0;orthogonalLoop=1;jettySize=auto;html=1;fontFamily=Comic Sans MS;fontSize=20;curved=1;strokeWidth=2;" edge="1" parent="1" source="4e6u0JH_3afCgV2eePuw-1" target="4e6u0JH_3afCgV2eePuw-3">
          <mxGeometry relative="1" as="geometry" />
        </mxCell>
        <mxCell id="4e6u0JH_3afCgV2eePuw-1" value="浏览器内部流量" style="rounded=1;whiteSpace=wrap;html=1;fontFamily=Comic Sans MS;fontSize=20;strokeWidth=2;fillColor=#ffcc99;strokeColor=#36393d;" vertex="1" parent="1">
          <mxGeometry x="240" y="240" width="180" height="60" as="geometry" />
        </mxCell>
        <mxCell id="4e6u0JH_3afCgV2eePuw-2" value="外渠流量" style="rounded=1;whiteSpace=wrap;html=1;fontFamily=Comic Sans MS;fontSize=20;strokeWidth=2;fillColor=#ffcc99;strokeColor=#36393d;dashed=1;" vertex="1" parent="1">
          <mxGeometry x="40" y="240" width="180" height="60" as="geometry" />
        </mxCell>
        <mxCell id="4e6u0JH_3afCgV2eePuw-3" value="OAS" style="rounded=1;whiteSpace=wrap;html=1;fontFamily=Comic Sans MS;fontSize=20;strokeWidth=2;fillColor=#cdeb8b;strokeColor=#36393d;" vertex="1" parent="1">
          <mxGeometry x="240" y="380" width="180" height="60" as="geometry" />
        </mxCell>
        <mxCell id="4e6u0JH_3afCgV2eePuw-8" value="" style="edgeStyle=orthogonalEdgeStyle;rounded=0;orthogonalLoop=1;jettySize=auto;html=1;fontFamily=Comic Sans MS;fontSize=20;curved=1;strokeWidth=2;" edge="1" parent="1" source="4e6u0JH_3afCgV2eePuw-6" target="4e6u0JH_3afCgV2eePuw-7">
          <mxGeometry relative="1" as="geometry" />
        </mxCell>
        <mxCell id="4e6u0JH_3afCgV2eePuw-6" value="创意生产&lt;br&gt;（机器挖掘、人工）" style="rounded=1;whiteSpace=wrap;html=1;fontFamily=Comic Sans MS;fontSize=20;strokeWidth=2;fillColor=#cce5ff;strokeColor=#36393d;" vertex="1" parent="1">
          <mxGeometry x="590" y="240" width="230" height="60" as="geometry" />
        </mxCell>
        <mxCell id="4e6u0JH_3afCgV2eePuw-9" style="edgeStyle=orthogonalEdgeStyle;rounded=0;orthogonalLoop=1;jettySize=auto;html=1;exitX=0;exitY=0.5;exitDx=0;exitDy=0;entryX=1;entryY=0.5;entryDx=0;entryDy=0;fontFamily=Comic Sans MS;fontSize=20;curved=1;strokeWidth=2;" edge="1" parent="1" source="4e6u0JH_3afCgV2eePuw-7" target="4e6u0JH_3afCgV2eePuw-3">
          <mxGeometry relative="1" as="geometry" />
        </mxCell>
        <mxCell id="4e6u0JH_3afCgV2eePuw-7" value="SMP（素材制作）" style="rounded=1;whiteSpace=wrap;html=1;fontFamily=Comic Sans MS;fontSize=20;strokeWidth=2;fillColor=#cce5ff;strokeColor=#36393d;" vertex="1" parent="1">
          <mxGeometry x="590" y="380" width="230" height="60" as="geometry" />
        </mxCell>
        <mxCell id="4e6u0JH_3afCgV2eePuw-10" value="人工 &lt;br&gt;1.&amp;nbsp; 圈定人群&lt;br&gt;2. 指定素材&lt;br&gt;3. 指定广告位" style="text;html=1;strokeColor=none;fillColor=none;align=left;verticalAlign=middle;whiteSpace=wrap;rounded=0;dashed=1;fontFamily=Comic Sans MS;fontSize=20;" vertex="1" parent="1">
          <mxGeometry x="460" y="460" width="180" height="20" as="geometry" />
        </mxCell>
        <mxCell id="4e6u0JH_3afCgV2eePuw-13" value="人工投放流程" style="shape=process;whiteSpace=wrap;html=1;backgroundOutline=1;fontFamily=Comic Sans MS;fontSize=20;strokeWidth=2;" vertex="1" parent="1">
          <mxGeometry x="190" y="70" width="290" height="60" as="geometry" />
        </mxCell>
      </root>
    </mxGraphModel>
  </diagram>
</mxfile>
